Coordinates
version=1
nRows=7
nColumns=63
inDegrees=yes

Units are S.I. units (second, meters, Newtons, ...)
If the header above contains a line with 'inDegrees', this indicates whether rotational values are in degrees (yes) or radians (no).

endheader
time	pelvis_tilt	pelvis_list	pelvis_rotation	pelvis_tx	pelvis_ty	pelvis_tz	hip_flexion_r	hip_adduction_r	hip_rotation_r	knee_angle_r	knee_angle_r_beta	ankle_angle_r	subtalar_angle_r	mtp_angle_r	hip_flexion_l	hip_adduction_l	hip_rotation_l	knee_angle_l	knee_angle_l_beta	ankle_angle_l	subtalar_angle_l	mtp_angle_l	L5_S1_Flex_Ext	L5_S1_Lat_Bending	L5_S1_axial_rotation	L4_L5_Flex_Ext	L4_L5_Lat_Bending	L4_L5_axial_rotation	L3_L4_Flex_Ext	L3_L4_Lat_Bending	L3_L4_axial_rotation	L2_L3_Flex_Ext	L2_L3_Lat_Bending	L2_L3_axial_rotation	L1_L2_Flex_Ext	L1_L2_Lat_Bending	L1_L2_axial_rotation	L1_T12_Flex_Ext	L1_T12_Lat_Bending	L1_T12_axial_rotation	Abs_r3	Abs_r2	Abs_r1	Abs_t1	Abs_t2	neck_flexion	neck_bending	neck_rotation	arm_flex_r	arm_add_r	arm_rot_r	elbow_flex_r	pro_sup_r	wrist_flex_r	wrist_dev_r	arm_flex_l	arm_add_l	arm_rot_l	elbow_flex_l	pro_sup_l	wrist_flex_l	wrist_dev_l
      1.71186441	      4.95553469	     -4.23079522	     98.25034642	      0.17217050	      0.62635216	      0.57599594	      6.86287170	      5.49650332	    -22.46588329	     15.26211692	      0.26637419	     29.34632306	     -2.18263325	      0.00000000	      0.13491252	     -5.77780575	      8.42519636	      1.04206710	      0.01818750	     29.44016099	      7.33122269	      0.00000000	      0.17430395	      1.07345738	     -2.37108554	      0.32369986	      1.42769831	     -2.51927838	      0.28636395	      2.61000427	     -2.51927838	      0.19921198	      2.61000427	     -2.07469984	      0.16185864	      2.18899428	     -1.92650700	      0.09959727	      1.66278548	     -1.77831415	      1.24503566	     12.14316454	    -13.18726642	      0.00000000	      0.00000000	     21.75528519	     -1.75034379	      9.53539059	     24.79039380	     -9.41970137	    113.08103646	     33.83308227	     32.92307258	      1.40434973	     -6.19030039	     11.07125168	     -5.10367173	     59.30059926	     37.35562730	     68.59299774	      2.83098963	     -1.61672119
      1.72881356	      4.96695360	     -4.18122660	     98.38170906	      0.17257104	      0.62632222	      0.57577387	      6.74142633	      5.60016296	    -22.38917977	     15.08547702	      0.26329124	     29.35399075	     -2.41630420	      0.00000000	      0.09807362	     -5.84886204	      8.24158090	      1.04280819	      0.01820044	     29.48419943	      7.91699990	      0.00000000	      0.17304106	      1.06506396	     -2.39528223	      0.32135455	      1.41653507	     -2.54498737	      0.28428916	      2.58959652	     -2.54498737	      0.19776863	      2.58959652	     -2.09587195	      0.16068593	      2.17187843	     -1.94616681	      0.09887566	      1.64978408	     -1.79646168	      1.23601498	     12.04821655	    -13.32184120	      0.00000000	      0.00000000	     21.74961001	     -1.64824212	      9.33551044	     24.42103906	     -9.24011461	    112.29911462	     33.35824682	     33.45809131	      1.50491964	     -6.12455410	     11.24189596	     -5.09610451	     59.82614189	     36.89907506	     68.76154413	      2.05763250	     -2.11850135
      1.74576271	      4.92463988	     -4.09972957	     98.40978036	      0.17298247	      0.62627921	      0.57523260	      6.52073224	      5.63261319	    -22.47175010	     14.87166581	      0.25955953	     29.45007704	     -2.14540497	      0.00000000	     -0.03480295	     -5.86032990	      8.17760563	      1.03292343	      0.01802791	     29.53574595	      8.16020304	      0.00000000	      0.16862219	      1.05126662	     -2.41103686	      0.31314827	      1.39818461	     -2.56172667	      0.27702940	      2.55604967	     -2.56172667	      0.19271830	      2.55604967	     -2.10965726	      0.15658257	      2.14374290	     -1.95896745	      0.09635072	      1.62841200	     -1.80827765	      1.20445145	     11.89213830	    -13.40946373	      0.00000000	      0.00000000	     21.74505531	     -1.54408662	      9.14725454	     23.84008567	     -9.07087348	    110.98197831	     32.79205958	     34.10557576	      1.64924673	     -5.67820018	     11.29745056	     -5.02505866	     60.08329842	     36.28825977	     69.16533642	      1.23180531	     -2.68751927
      1.76271186	      4.88947628	     -4.02705712	     98.36771311	      0.17348202	      0.62612157	      0.57454549	      6.29835136	      5.68988195	    -22.40842957	     14.66981499	      0.25603657	     29.35523263	     -2.15610862	      0.00000000	     -0.18748645	     -5.87240828	      8.15306855	      1.02567653	      0.01790143	     29.51510736	      7.92457758	      0.00000000	      0.16519606	      1.03806135	     -2.41680581	      0.30678560	      1.38062159	     -2.56785617	      0.27140060	      2.52394236	     -2.56785617	      0.18880257	      2.52394236	     -2.11470508	      0.15340106	      2.11681470	     -1.96365472	      0.09439303	      1.60795703	     -1.81260436	      1.17997892	     11.74275756	    -13.44154888	      0.00000000	      0.00000000	     21.76879249	     -1.38537987	      8.97763450	     23.25577592	     -8.89292399	    109.75455597	     32.27557938	     33.91430052	      1.92370265	     -4.92940651	     11.12290094	     -4.88087760	     59.55307394	     35.68977348	     70.16127385	      0.68271044	     -2.81110438
      1.77966102	      4.88319944	     -3.96095429	     98.30579721	      0.17384219	      0.62592281	      0.57392385	      6.10109122	      5.74337368	    -22.49271238	     14.55540996	      0.25403983	     29.09687467	     -2.21309536	      0.00000000	     -0.32777999	     -5.90148047	      7.89806256	      1.04393770	      0.01822015	     29.44179304	      7.69929173	      0.00000000	      0.16044318	      1.03238083	     -2.42578744	      0.29795902	      1.37306650	     -2.57739916	      0.26359209	      2.51013074	     -2.57739916	      0.18337051	      2.51013074	     -2.12256401	      0.14898753	      2.10523098	     -1.97095230	      0.09167723	      1.59915790	     -1.81934058	      1.14602957	     11.67849838	    -13.49150203	      0.00000000	      0.00000000	     21.79462242	     -1.29247337	      8.99059957	     22.93818445	     -8.64339867	    109.61499764	     31.76189109	     33.80793542	      1.76897890	     -4.75325895	     11.04164386	     -4.70013584	     59.40701680	     34.99383739	     70.15521107	      0.42418933	     -2.65522786
      1.79661017	      4.86686073	     -3.87210334	     98.23279359	      0.17425599	      0.62575677	      0.57302848	      5.81343086	      5.81019703	    -22.59056992	     14.38969287	      0.25114752	     28.67294877	     -2.37556421	      0.00000000	     -0.53358720	     -5.92938839	      7.56157568	      1.04272527	      0.01819899	     29.28601880	      7.45648195	      0.00000000	      0.15745378	      1.02519383	     -2.42773997	      0.29240741	      1.36350780	     -2.57947371	      0.25868081	      2.49265629	     -2.57947371	      0.17995392	      2.49265629	     -2.12427247	      0.14621158	      2.09057527	     -1.97253872	      0.08996909	      1.58802525	     -1.82080497	      1.12467659	     11.59719768	    -13.50236137	      0.00000000	      0.00000000	     21.74002986	     -1.18882169	      8.98945051	     22.61786309	     -8.39663732	    109.48020236	     31.26022156	     33.72930002	      1.66301975	     -4.45106726	     10.85669633	     -4.48449117	     59.30947418	     34.27367584	     70.06717087	      0.23227874	     -2.45561438
      1.81355932	      4.85614864	     -3.74937872	     98.07488691	      0.17486049	      0.62560828	      0.57184612	      5.41559475	      5.94752417	    -22.45161125	     14.12113233	      0.24646025	     28.11573015	     -2.83940945	      0.00000000	     -0.83626047	     -5.97427692	      7.14981200	      0.99727722	      0.01740577	     29.14254908	      7.20397196	      0.00000000	      0.15313796	      1.01756378	     -2.41808017	      0.28439250	      1.35335983	     -2.56921018	      0.25159035	      2.47410457	     -2.56921018	      0.17502137	      2.47410457	     -2.11582015	      0.14220391	      2.07501606	     -1.96469014	      0.08750303	      1.57620629	     -1.81356013	      1.09384911	     11.51088498	    -13.44863650	      0.00000000	      0.00000000	     21.59848949	     -1.06856396	      8.96474921	     22.38418443	     -8.13712061	    109.45149865	     30.84991354	     33.90945208	      1.58884079	     -3.93210714	     10.60018370	     -4.25606075	     59.31322617	     33.53425081	     69.64053623	      0.43233867	     -2.10240068
